<?xml version="1.0" standalone="no"?><!DOCTYPE svg PUBLIC "-//W3C//DTD SVG 1.1//EN" "http://www.w3.org/Graphics/SVG/1.1/DTD/svg11.dtd"><svg class="icon" width="1024px" height="1024.00px" viewBox="0 0 1024 1024" version="1.1" xmlns="http://www.w3.org/2000/svg"><path d="M0 102.144v819.2h1024V298.24l-195.072-196.096z" fill="#F6B502" /><path d="M636.928 102.144l193.024 193.024v-193.024z" fill="#D89F01" /><path d="M830.464 102.144v193.024h193.024z" fill="#FFE25E" /><path d="M699.904 650.496c0 44.544-43.52 86.528-96.768 93.184-53.248 6.656-96.768-21.504-96.768-66.048s43.52-86.016 96.768-93.184c36.352-4.608 56.832 7.68 56.832 7.68v-169.472c0-21.504-22.528-13.312-22.528-13.312l-198.656 64.512s-22.528 8.192-22.528 28.16v210.944c0 44.544-39.424 86.016-92.672 93.696-53.248 7.68-96.768-19.456-96.768-64s43.008-87.04 96.768-95.232c36.352-5.632 52.736 6.144 52.736 6.144v-246.784c0-28.16 22.016-57.856 49.152-66.048l225.28-71.68c27.136-8.192 49.152 8.704 49.152 36.864v344.576z" fill="#FFFFFF" /></svg>