<?xml version="1.0" standalone="no"?><!DOCTYPE svg PUBLIC "-//W3C//DTD SVG 1.1//EN" "http://www.w3.org/Graphics/SVG/1.1/DTD/svg11.dtd"><svg class="icon" width="1024px" height="1024.00px" viewBox="0 0 1024 1024" version="1.1" xmlns="http://www.w3.org/2000/svg"><path d="M0 97.6384v828.928h1024V295.7824l-195.072-198.144z" fill="#30BA78" /><path d="M636.928 97.6384l193.024 193.024v-193.024z" fill="#179656" /><path d="M830.464 97.6384v193.024h193.024z" fill="#50D894" /><path d="M302.1056 408.22784c15.36 0 28.16-12.8 28.16-28.16v-22.016c0-3.584-2.56-6.144-6.144-6.144H130.5856c-12.288 0-22.016 9.728-22.016 22.016v340.48c0 5.12 4.096 9.216 9.216 9.216h204.288c4.096 0 7.68-3.584 7.68-7.68v-22.016c0-14.336-11.776-26.112-26.112-26.112h-119.808c-10.752 0-19.456-8.704-19.456-19.456v-61.44c0-11.264 9.216-20.992 20.992-20.992h115.2c16.384 0 29.696-13.312 29.696-29.696v-11.264c0-8.192-6.656-15.36-15.36-15.36h-146.432c-2.048 0-4.096-2.048-4.096-4.096v-46.08c0-28.16 23.04-51.2 51.2-51.2h86.528zM590.3616 408.22784c15.36 0 28.16-12.8 28.16-28.16v-22.016c0-3.584-2.56-6.144-6.144-6.144H418.8416c-11.776 0-22.016 9.728-22.016 22.016v340.48c0 5.12 4.096 9.216 9.216 9.216h204.288c4.096 0 7.68-3.584 7.68-7.68v-22.016c0-14.336-11.776-26.112-26.112-26.112h-119.808c-10.752 0-19.456-8.704-19.456-19.456v-61.44c0-11.264 9.216-20.992 20.992-20.992h114.688c16.384 0 29.696-13.312 29.696-29.696v-11.264c0-8.192-6.656-15.36-15.36-15.36h-145.92c-2.048 0-4.096-2.048-4.096-4.096v-46.08c0-28.16 23.04-51.2 51.2-51.2h86.528zM732.1856 661.15584v-236.032c0-8.704 7.168-15.872 15.872-15.872h104.448c3.584 0 6.656 3.072 6.656 6.656v224.256c0 19.968-16.384 36.352-36.352 36.352h-74.752c-8.704 0-15.872-6.656-15.872-15.36z m-31.232-308.736c-13.824 0-25.088 11.264-25.088 25.088v342.528c0 7.168 5.632 13.312 13.312 13.312l151.552 0.512c40.96 0 74.752-33.28 74.752-74.752v-293.376c0-7.168-6.144-13.312-13.312-13.312h-201.216z" fill="#FFFFFF" /></svg>