<?xml version="1.0" standalone="no"?><!DOCTYPE svg PUBLIC "-//W3C//DTD SVG 1.1//EN" "http://www.w3.org/Graphics/SVG/1.1/DTD/svg11.dtd"><svg class="icon" width="1024px" height="1024.00px" viewBox="0 0 1024 1024" version="1.1" xmlns="http://www.w3.org/2000/svg"><path d="M339.2 334.4c33.6 0 60.8 27.2 60.8 60.8s-27.2 60.8-60.8 60.8-60.8-27.2-60.8-60.8 27.2-60.8 60.8-60.8zM460.8 752h-256l128-222.4 107.2 184 179.2-310.4L819.2 752H460.8z" fill="#FFFFFF" /><path d="M828.8 102.4H0v819.2h1024V299.2L828.8 102.4zM339.2 334.4c33.6 0 60.8 27.2 60.8 60.8s-27.2 60.8-60.8 60.8-60.8-27.2-60.8-60.8 27.2-60.8 60.8-60.8zM460.8 752h-256l128-222.4 107.2 184 179.2-310.4L819.2 752H460.8z" fill="#2DC4F9" /><path d="M636.8 102.4l193.6 193.6V102.4H636.8z" fill="#0AA2C6" /><path d="M830.4 296H1024L830.4 102.4v193.6z" fill="#48DDFF" /></svg>