<?xml version="1.0" standalone="no"?><!DOCTYPE svg PUBLIC "-//W3C//DTD SVG 1.1//EN" "http://www.w3.org/Graphics/SVG/1.1/DTD/svg11.dtd"><svg class="icon" width="1024px" height="1024.00px" viewBox="0 0 1024 1024" version="1.1" xmlns="http://www.w3.org/2000/svg"><path d="M0 102.8608v818.176h1022.464V298.9568l-194.56-196.096z" fill="#FF5A5A" /><path d="M635.904 102.8608l193.024 193.024v-193.024z" fill="#DB3737" /><path d="M829.44 102.8608v195.072h194.56z" fill="#FF9797" /><path d="M760.832 638.4128c-3.584 2.048-13.824 3.584-20.48 3.584-20.992 0-47.104-9.728-83.968-25.088 12.8-1.024 25.6-1.536 38.4-1.536 20.992 0 27.648 0 48.128 5.12 20.992 5.12 21.504 15.36 17.92 17.92z m-367.104 3.072c8.192-14.336 16.384-29.184 25.088-45.056 16.384-30.72 31.232-61.952 44.032-94.72 19.456 34.816 44.032 65.024 72.704 88.576 3.584 3.072 7.168 6.144 11.264 8.704-58.368 11.776-109.056 25.6-153.088 42.496z m68.096-368.64c11.776 0 18.432 28.672 18.944 55.808 0.512 27.136-5.632 46.08-13.824 59.904-6.656-20.48-9.728-53.248-9.728-74.752-0.512 0-1.024-40.96 4.608-40.96z m-227.84 517.12c6.656-17.92 32.768-52.736 71.168-83.968 2.56-2.048 8.192-7.68 13.824-12.8-40.448 63.488-67.584 89.088-84.992 96.768z m538.112-188.928c-11.776-11.264-37.376-17.408-76.8-17.92-26.624-0.512-58.88 2.048-92.16 6.656-14.848-8.704-30.72-17.92-43.008-29.184-32.768-30.208-60.416-72.192-77.312-118.272 1.024-4.608 2.048-8.192 3.072-11.776 0 0 18.432-103.424 13.824-138.752-0.512-3.584-1.024-6.656-2.56-9.728l-1.536-4.096c-5.12-11.264-14.848-23.552-30.208-23.04l-9.728-0.512c-17.408 0-31.232 8.704-34.816 21.504-11.264 40.96 0.512 101.888 21.504 180.736l-5.632 12.8c-14.848 36.352-33.792 72.192-50.176 104.448l-2.048 4.096c-14.848 29.184-30.72 58.368-47.616 86.528l-14.848 7.68c-1.024 0.512-26.624 13.824-32.256 17.408-50.688 29.696-83.968 63.488-89.6 90.624-1.536 8.704-0.512 19.456 8.704 24.576l14.336 7.168c6.144 3.072 12.8 4.608 19.456 4.608 35.84 0 77.824-44.544 135.68-143.36 66.56-21.504 142.336-38.912 208.896-48.64 50.688 28.16 112.64 47.616 152.064 47.616 6.144 0 11.776-0.512 17.92-2.048 7.168-1.536 13.312-6.144 17.92-11.776 7.68-11.264 9.216-27.136 7.168-43.008-2.56-4.608-6.144-10.24-10.24-14.336z" fill="#FFFFFF" /></svg>