<?xml version="1.0" standalone="no"?><!DOCTYPE svg PUBLIC "-//W3C//DTD SVG 1.1//EN" "http://www.w3.org/Graphics/SVG/1.1/DTD/svg11.dtd"><svg class="icon" width="1024px" height="1024.00px" viewBox="0 0 1024 1024" version="1.1" xmlns="http://www.w3.org/2000/svg"><path d="M544 307.2H313.6v65.6h65.6v428.8h99.2V638.4H544c99.2 0 164.8-65.6 164.8-164.8 1.6-99.2-65.6-166.4-164.8-166.4z m0 264h-64V374.4h65.6c33.6 0 83.2 33.6 83.2 99.2-1.6 65.6-51.2 97.6-84.8 97.6z" fill="#FFFFFF" /><path d="M828.8 102.4H0v819.2h1024V299.2L828.8 102.4zM544 638.4h-65.6v163.2h-99.2V372.8h-65.6v-65.6H544c97.6 0 164.8 67.2 163.2 166.4 1.6 99.2-64 164.8-163.2 164.8z" fill="#FF7300" /><path d="M545.6 374.4H480v196.8h64c32 0 81.6-32 83.2-97.6 1.6-65.6-48-99.2-81.6-99.2z" fill="#FF7300" /><path d="M636.8 102.4l193.6 193.6V102.4H636.8z" fill="#FC4E1E" /><path d="M830.4 296H1024L830.4 102.4v193.6z" fill="#FD9827" /></svg>