<?xml version="1.0" standalone="no"?><!DOCTYPE svg PUBLIC "-//W3C//DTD SVG 1.1//EN" "http://www.w3.org/Graphics/SVG/1.1/DTD/svg11.dtd"><svg class="icon" width="1024px" height="1024.00px" viewBox="0 0 1024 1024" version="1.1" xmlns="http://www.w3.org/2000/svg"><path d="M772.8 347.2l-9.6-48-35.2 6.4 25.6 44.8zM726.4 355.2l-27.2-44.8-76.8 12.8 27.2 44.8zM620.8 372.8l-27.2-46.4-76.8 12.8 27.2 46.4zM515.2 390.4l-27.2-46.4-76.8 12.8 27.2 46.4zM411.2 408l-28.8-46.4-75.2 12.8 27.2 46.4zM278.4 379.2l-57.6 9.6 8 49.6 76.8-12.8z" fill="#FFFFFF" /><path d="M228.8 438.4v360h496l54.4-46.4V438.4z" fill="#FFFFFF" /><path d="M828.8 102.4H0v819.2h1024V299.2L828.8 102.4z m-65.6 196.8l8 48-17.6 3.2-27.2-44.8 36.8-6.4z m-64 11.2l27.2 44.8-76.8 12.8-27.2-44.8 76.8-12.8z m-105.6 16l27.2 44.8-76.8 14.4-27.2-44.8 76.8-14.4z m-105.6 17.6l27.2 44.8-76.8 12.8-27.2-44.8 76.8-12.8z m-105.6 17.6l27.2 44.8-76.8 12.8-27.2-44.8 76.8-12.8z m-161.6 27.2l57.6-9.6 27.2 44.8-76.8 12.8-8-48zM779.2 752l-54.4 46.4h-496V438.4h550.4V752z" fill="#8183F1" /><path d="M470.4 692.8l107.2-62.4c11.2-6.4 11.2-20.8 0-27.2l-107.2-62.4c-11.2-6.4-24 1.6-24 14.4v123.2c0 12.8 12.8 20.8 24 14.4z" fill="#8183F1" /><path d="M636.8 102.4h193.6v193.6" fill="#656AC9" /><path d="M1024 296H830.4V102.4" fill="#AFB0FF" /></svg>