<?xml version="1.0" standalone="no"?><!DOCTYPE svg PUBLIC "-//W3C//DTD SVG 1.1//EN" "http://www.w3.org/Graphics/SVG/1.1/DTD/svg11.dtd"><svg class="icon" width="1024px" height="1024.00px" viewBox="0 0 1024 1024" version="1.1" xmlns="http://www.w3.org/2000/svg"><path d="M640 792h-64l-64-291.2-64 291.2h-64l-115.2-486.4h97.6l62.4 308.8L480 305.6h64l51.2 308.8 49.6-243.2h-51.2v-65.6h161.6z" fill="#FFFFFF" /><path d="M828.8 102.4H0v819.2h1024V294.4l-195.2-192zM640 792h-64l-64-291.2-64 291.2h-64l-115.2-486.4h97.6l62.4 308.8L480 305.6h64l51.2 308.8 48-243.2H592v-65.6h161.6L640 792z" fill="#3980FC" /><path d="M636.8 102.4h193.6v193.6" fill="#2054B2" /><path d="M1024 296H830.4V102.4" fill="#9EC2FF" /></svg>